<svg width="90" height="90" viewBox="0 0 90 90" fill="none" xmlns="http://www.w3.org/2000/svg">
<path d="M45 0C69.8589 0 90 20.1411 90 45C90 69.8589 69.8589 90 45 90C20.1411 90 0 69.8589 0 45C0 20.1411 20.1411 0 45 0ZM39.7561 26.0565L53.4556 39.1935H20.3226C17.9093 39.1935 15.9677 41.1351 15.9677 43.5484V46.4516C15.9677 48.8649 17.9093 50.8065 20.3226 50.8065H53.4556L39.7561 63.9435C37.996 65.631 37.9597 68.4436 39.6835 70.1673L41.6794 72.1452C43.3851 73.8508 46.1431 73.8508 47.8306 72.1452L71.9093 48.0847C73.6149 46.379 73.6149 43.621 71.9093 41.9335L47.8306 17.8367C46.125 16.131 43.3669 16.131 41.6794 17.8367L39.6835 19.8145C37.9597 21.5565 37.996 24.369 39.7561 26.0565V26.0565Z" fill="black"/>
</svg>
