<svg id="Layer_1" data-name="Layer 1" xmlns="http://www.w3.org/2000/svg" viewBox="0 0 1331.87 959"><defs><style>.cls-1{fill:#1a1a1a;}.cls-2{fill:#f5f5f5;}.cls-3{fill:#3552ff;}.cls-4{fill:#ccc;}</style></defs><title>ME</title><path class="cls-1" d="M69.29,514.41H159.2a22.18,22.18,0,0,1,22.18,22.18v74.15a22.19,22.19,0,0,1-22.19,22.19H69.29a22.19,22.19,0,0,1-22.19-22.19V536.59A22.18,22.18,0,0,1,69.29,514.41Z"/><rect class="cls-2" x="152.06" y="2.11" width="588.58" height="408.45" rx="30.99"/><rect class="cls-3" x="854.55" y="389.61" width="477.32" height="384.17" rx="30.99"/><path class="cls-1" d="M1557.19,747s-4.26-1.86-40.19-20.49-54-24-67.32-25.28-31.94,2.39-42.85,6.92-46.57,17.83-62.27,20-34.33-4.53-42-7.72-65-38.13-65-38.13-12.64,139.22-17.46,184.23h287.08a50.71,50.71,0,0,0,50.56-50.57V748.47Z" transform="translate(-282.57 -64)"/><path class="cls-3" d="M894.55,545.43s-45.06,8.79-76.63,23.27S758,599.93,758,599.93s29.86-75.15,35.58-90.71S810.66,475,810.66,475,796,456.11,795.75,446.84c0,0-30-3.78-50.3-18.21,0,0-14.66-6.15-17.34-12.08,0,0-30-22.29-27.91-42.05,0,0-21,33.34-46,100.06s-39.57,93.73-28.08,167,74.53,92.93,87.72,96.05,36.63,9.71,60.42,5.21,45.91-14.23,45.91-14.23L813.28,782l-25.77,237.45h341.63l-13.29-133.62s13.77,34.69,35.92,47.88,50.58,14.78,76.08,1.11,38-40.25,40.42-60.49,1.59-47.89-6.75-84.93-34.73-150.11-34.73-150.11l-78.36-37.48s-27.44-41.34-69.61-50.94l-42.16-9.6Z" transform="translate(-282.57 -64)"/><path class="cls-2" d="M1225.81,642.15s2.74-25.64-9.38-44.51-21.35-29.07-24.45-34.59-1.73-29.89-3.88-39.18-5.08-23.48-21.57-20.73-21,24.36-18.45,38.42,12.65,47.05,12.09,51.6-26.86,21.06-40.89,26.3-40.82,14.74-47.78,25.5-4.57,24.9,8.9,26.21c0,0-17.34,9.07-13.81,21.86s15.46,11.17,15.46,11.17-3,18.81,16.22,21.19,55.65-10.79,68.26-17.58,34.74-18.34,44.31-32.32S1226.22,645.14,1225.81,642.15Z" transform="translate(-282.57 -64)"/><path class="cls-2" d="M903.89,422.68s-28.91-5.51-29.73,19.76,25,25.08,32.64,19.88c0,0-.5,59.14,58.16,58.21s60.25-49.83,60.25-49.83v-7.28s26.55,8.24,31.24-9.21,1.71-24.39-5.06-28.16-24-2.61-24-2.61v-6.05a157.16,157.16,0,0,0-51.94-34.51c-31.84-12.77-48-14.6-48-14.6s-12.81,32.56-21.68,39.55Z" transform="translate(-282.57 -64)"/><polygon class="cls-2" points="641.9 433.65 641.9 450.15 611.99 481.43 632.96 596.91 683.97 523.46 735.13 596.91 755.59 479.02 726.11 449.35 726.32 435.14 641.9 433.65"/><circle class="cls-2" cx="1431.05" cy="579.28" r="42.15" transform="translate(-273.03 1117.57) rotate(-45)"/><rect class="cls-2" x="98.03" y="733.32" width="639.22" height="197.22" rx="30.99"/><path class="cls-1" d="M506.44,895.93A33.95,33.95,0,1,1,472.49,862,34,34,0,0,1,506.44,895.93Z" transform="translate(-282.57 -64)"/><path class="cls-1" d="M964.82,66.11H493a58.56,58.56,0,0,0-58.39,58.38v39.33h588.59V124.49A58.56,58.56,0,0,0,964.82,66.11Z" transform="translate(-282.57 -64)"/><path class="cls-1" d="M896.28,419.41s-4.84-27.64-4.51-35.58,6.11-29.89,12.49-33.08,8.59-3.59,8.59-3.59,14.57-23.44,48.5-23.63,58.72,13.23,68.81,31.2,8,45.41,8,53.51a46.52,46.52,0,0,1-1.89,13.56l-8.9.53-.68-4.94s-28.55-28-60.25-38-39-11.12-39-11.12-10.09,29.56-21.68,39.55l-.47,14.5Z" transform="translate(-282.57 -64)"/><path class="cls-2" d="M805.9,411.26s20.22,10.55,29.05,24.22,11.09,45.7-6.6,46.95-25.61-19.29-27.84-25.23-3-13.23-16.75-17.87-44.41-9-50-18.17-14.8-14.59-14.37-44.3c0,0-9.55-30.76,4.62-43.81s30.33-12.63,59.27-11.84,49.74-13.62,63-19.23,34-16.61,45.46-10.47S895,313.65,895,313.65s10.24,3.57,13.36,12-8.65,24.52-8.65,24.52,6.8,1.82,8.59,13.2-14.74,21.84-29.32,25.8-50.52,8.53-58.1,9.13S801.13,403.92,805.9,411.26Z" transform="translate(-282.57 -64)"/><path class="cls-3" d="M420.47,599.78c-3.64-6.22-9.58-6.22-13.21,0l-27.89,47.77c-3.63,6.22-.71,11.31,6.48,11.31h56c7.2,0,10.12-5.09,6.49-11.31Z" transform="translate(-282.57 -64)"/><path class="cls-3" d="M978.39,115.89a20.74,20.74,0,1,1-20.74-20.74A20.74,20.74,0,0,1,978.39,115.89Z" transform="translate(-282.57 -64)"/><circle class="cls-3" cx="804.62" cy="87.54" r="21.4"/><path class="cls-3" d="M1592.31,337.19a21.41,21.41,0,1,1-21.41-21.4A21.41,21.41,0,0,1,1592.31,337.19Z" transform="translate(-282.57 -64)"/><circle class="cls-4" cx="887.41" cy="115.89" r="20.74" transform="translate(-104.59 597.44) rotate(-45)"/><circle class="cls-2" cx="817.35" cy="115.89" r="20.74" transform="translate(-265.34 255.09) rotate(-22.32)"/><path class="cls-1" d="M715,360.92s-13,2.35-14.83,13.58,18.25,35.77,23.39,38.37h3.61s-10.1-22.75-6.78-35.13Z" transform="translate(-282.57 -64)"/><path class="cls-1" d="M758.06,434s13.29.17,22.32,4,13,6.42,13,6.42A60.29,60.29,0,0,1,758.06,434Z" transform="translate(-282.57 -64)"/><path class="cls-1" d="M814.81,399.46S804,402.94,805,409c0,0,19,12.85,22.56,16.64s6.19,6.37,6.19,6.37S834,414.59,814.81,399.46Z" transform="translate(-282.57 -64)"/><circle class="cls-1" cx="1046" cy="179.89" r="21.81"/><path class="cls-2" d="M1027.36,422.33l8.9-.53a46.52,46.52,0,0,0,1.89-13.56c0-8.1,2.1-35.54-8-53.51-8.49-15.13-27.43-27-53.44-30.27,17.52,7.59,36.18,19.47,32.35,34.79C1003.49,381.6,925,366.7,925,366.7l2,2.83.44-1.25s7.32,1.1,39,11.12,60.25,38,60.25,38Z" transform="translate(-282.57 -64)"/><path d="M1557.72,750.17a2.09,2.09,0,0,1-1-.23l-73.33-37.48c-17.48-9-46.79-11.12-65.39-4.8l-55,18.65c-19.56,6.64-49.91,3.44-67.67-7.13l-58.93-35.11a2.11,2.11,0,1,1,2.15-3.62l58.93,35.11c16.85,10,45.65,13.05,64.17,6.76l55-18.65c19.53-6.62,50.31-4.36,68.65,5.05l73.34,37.47a2.1,2.1,0,0,1-1,4Z" transform="translate(-282.57 -64)"/><path d="M1417.94,635.43a44.26,44.26,0,1,1,44.24-44.25A44.31,44.31,0,0,1,1417.94,635.43Zm0-84.3a40,40,0,1,0,40,40A40.1,40.1,0,0,0,1417.94,551.13Z" transform="translate(-282.57 -64)"/><path d="M1017.7,663a2.08,2.08,0,0,1-1.72-.9l-49.44-71-49.28,71a2,2,0,0,1-2.16.85,2.09,2.09,0,0,1-1.64-1.66L891.34,545.82a2.11,2.11,0,0,1,.57-1.88L923,512.67a2.07,2.07,0,0,1,1.77-.61,2.1,2.1,0,0,1,1.55,1l40.24,70.12,40.53-70.92a2.11,2.11,0,0,1,1.55-1,2,2,0,0,1,1.78.61l29.26,29.67a2.1,2.1,0,0,1,.58,1.84l-20.45,117.89a2.12,2.12,0,0,1-1.62,1.7A2.4,2.4,0,0,1,1017.7,663Zm-122-116.9,21,109.48,47.39-68.25L924,517.6ZM969,587.35l47.47,68.15,19.39-111.77-26.55-26.92Z" transform="translate(-282.57 -64)"/><path d="M978.81,487.53a43.79,43.79,0,0,1-9.21-1,2.11,2.11,0,0,1,1-4.1c.14,0,13.71,3.1,22.19-2.79,3.73-2.6,6-6.64,6.64-12a2.08,2.08,0,0,1,2.36-1.83,2.11,2.11,0,0,1,1.82,2.36c-.84,6.62-3.67,11.65-8.43,15C990.12,486.64,983.87,487.53,978.81,487.53Z" transform="translate(-282.57 -64)"/><path d="M757.3,745.93c-18,0-33.46-3.29-47.84-7.36-52.83-15-84.81-60.27-90.05-127.54-3.74-47.92,14-94.89,31.83-134.51C658,461.39,663,449,667.8,437c8.84-22.14,16.49-41.26,32.24-68.17a2.11,2.11,0,0,1,3.64,2.14c-15.6,26.62-23.19,45.61-32,67.59-4.81,12.05-9.79,24.51-16.63,39.71-17.62,39.15-35.14,85.5-31.47,132.46,5.09,65.39,36,109.36,87,123.81,28.2,8,60.85,12.88,108.47-5.17a2.1,2.1,0,0,1,1.49,3.93C796.07,742.57,775.44,745.93,757.3,745.93Z" transform="translate(-282.57 -64)"/><path d="M751.34,631.69a2.18,2.18,0,0,1-2.09-2.42c4.57-30.84,16.34-57.58,21.36-69,.88-2,1.57-3.56,2-4.68l17.69-44.06c4.68-11.67,10.44-22.41,16.52-33.78l2-3.72a2.11,2.11,0,0,1,3.72,2l-2,3.73c-6,11.26-11.73,21.9-16.33,33.37l-17.68,44c-.47,1.15-1.18,2.77-2.08,4.81-5.38,12.22-16.57,37.64-21.05,67.92A2.11,2.11,0,0,1,751.34,631.69Z" transform="translate(-282.57 -64)"/><path class="cls-1" d="M292.22,261.5a9.18,9.18,0,1,0-9.18-9.17A9.16,9.16,0,0,0,292.22,261.5Z" transform="translate(-282.57 -64)"/><path class="cls-1" d="M363.54,262a9.66,9.66,0,1,0-9.65-9.65A9.65,9.65,0,0,0,363.54,262Z" transform="translate(-282.57 -64)"/><path class="cls-1" d="M434.86,261.27a8.94,8.94,0,1,0-8.94-8.94A8.94,8.94,0,0,0,434.86,261.27Z" transform="translate(-282.57 -64)"/><path class="cls-1" d="M292.22,333.3a9.65,9.65,0,1,0-9.65-9.65A9.65,9.65,0,0,0,292.22,333.3Z" transform="translate(-282.57 -64)"/><circle class="cls-1" cx="80.97" cy="259.65" r="10.13"/><circle class="cls-1" cx="152.3" cy="259.65" r="9.41"/><path class="cls-1" d="M292.22,403.91a8.94,8.94,0,1,0-8.94-8.94A8.94,8.94,0,0,0,292.22,403.91Z" transform="translate(-282.57 -64)"/><path class="cls-1" d="M363.54,404.39a9.42,9.42,0,1,0-9.41-9.42A9.41,9.41,0,0,0,363.54,404.39Z" transform="translate(-282.57 -64)"/><path class="cls-1" d="M434.86,403.75a8.78,8.78,0,1,0-8.78-8.78A8.78,8.78,0,0,0,434.86,403.75Z" transform="translate(-282.57 -64)"/><path d="M1525.3,1023H442.45a2.11,2.11,0,0,1,0-4.21H1525.3a2.11,2.11,0,0,1,0,4.21Z" transform="translate(-282.57 -64)"/><path d="M936.84,422.92c1.68-.27,2.81.45,3.3,6.51.54,6.76-1.22,7.95-2.73,7.89s-3-2.14-3-7S934.64,423.26,936.84,422.92Z" transform="translate(-282.57 -64)"/><path d="M895.76,467.14c-.51,0-1,0-1.51-.05a24.06,24.06,0,0,1,3-48,24.16,24.16,0,0,1,7.41,1.66,2.1,2.1,0,0,1-1.55,3.91,20.12,20.12,0,0,0-6.12-1.36,19.85,19.85,0,0,0-2.49,39.62,20.54,20.54,0,0,0,10.39-2.19,2.1,2.1,0,0,1,1.93,3.74A24.1,24.1,0,0,1,895.76,467.14Z" transform="translate(-282.57 -64)"/><path d="M890.92,456.32a2.1,2.1,0,0,1-1.28-3.77l12.61-9.74-14.13-10.45a2.11,2.11,0,0,1-.43-2.95,2.09,2.09,0,0,1,2.94-.44L907,441.08a2.11,2.11,0,0,1,.85,1.67,2.13,2.13,0,0,1-.82,1.69l-14.82,11.44A2.08,2.08,0,0,1,890.92,456.32Z" transform="translate(-282.57 -64)"/><path d="M1037.52,467.14a24.1,24.1,0,0,1-11.07-2.7,2.1,2.1,0,0,1-.9-2.84,2.13,2.13,0,0,1,2.84-.9,19.85,19.85,0,1,0,1.38-35.9,2.11,2.11,0,0,1-1.65-3.88A24.07,24.07,0,1,1,1039,467.09C1038.53,467.12,1038,467.14,1037.52,467.14Z" transform="translate(-282.57 -64)"/><path d="M1042.36,456.32a2.1,2.1,0,0,1-1.29-.44l-14.81-11.44a2.11,2.11,0,0,1,0-3.36L1042.65,429a2.11,2.11,0,1,1,2.51,3.39L1031,442.81l12.61,9.74a2.1,2.1,0,0,1-1.28,3.77Z" transform="translate(-282.57 -64)"/><path d="M1188,946.15c-26.53,0-55.2-13.19-74.1-59.5a2.11,2.11,0,0,1,3.9-1.6c19.51,47.81,51.62,65.66,95.46,53.09,73.77-21.17,53.47-114.77,46.8-145.52-9.74-44.94-36.13-156.25-36.39-157.37a2.11,2.11,0,0,1,4.1-1c.26,1.12,26.66,112.47,36.41,157.44,6.88,31.71,27.81,128.21-49.76,150.47A96.16,96.16,0,0,1,1188,946.15Z" transform="translate(-282.57 -64)"/><path d="M970.71,522.64h-8.43c-10.58,0-25.73-2.18-37.81-12.54-9.28-8-15.41-20.71-18.76-39-2.21-12.08-2.7-50.36-2.51-62.87a2.11,2.11,0,0,1,4.21.07c-.2,13.46.39,50.8,2.45,62,3.17,17.32,8.84,29.28,17.34,36.58,11.12,9.53,25.21,11.53,35.08,11.53h8.43c9.87,0,24-2,35.07-11.53,8.51-7.3,14.19-19.26,17.36-36.58,2.22-12.13,2.28-42.3,2.11-52.89a2.1,2.1,0,0,1,2.08-2.14,2,2,0,0,1,2.13,2.07c.17,10.71.1,41.26-2.18,53.72-3.35,18.31-9.48,31.07-18.75,39C996.44,520.46,981.29,522.64,970.71,522.64Z" transform="translate(-282.57 -64)"/><path d="M924.47,516.26a2.13,2.13,0,0,1-2.11-2.13l.07-6.83a2.11,2.11,0,0,1,4.21,0l-.07,6.83A2.1,2.1,0,0,1,924.47,516.26Z" transform="translate(-282.57 -64)"/><path d="M1008.68,515.45a2.11,2.11,0,0,1-2.11-2.18l.21-6a2,2,0,0,1,2.19-2,2.09,2.09,0,0,1,2,2.18l-.21,6A2.1,2.1,0,0,1,1008.68,515.45Z" transform="translate(-282.57 -64)"/><path d="M1036.16,423.27a2.17,2.17,0,0,1-2.09-2.43c4.68-29.92.23-48.38-4.73-62.48-10.4-29.58-53.83-36.05-81.38-31.25-20.85,3.67-32.43,20.49-32.54,20.67a2.11,2.11,0,0,1-1.31.87,21.84,21.84,0,0,0-10,4.91,2.11,2.11,0,0,1-2.78-3.17,25.8,25.8,0,0,1,11.13-5.67c2.54-3.44,14.46-18.18,34.82-21.75,29-5.09,74.86,2.08,86.08,34,5.13,14.6,9.73,33.68,4.92,64.53A2.11,2.11,0,0,1,1036.16,423.27Z" transform="translate(-282.57 -64)"/><path d="M896.68,423.22a2.1,2.1,0,0,1-2-1.53c-.21-.75-5.15-18.6-5-37.13a2.11,2.11,0,0,1,2.11-2.09,2.13,2.13,0,0,1,2.11,2.13c-.16,17.91,4.78,35.77,4.83,35.95a2.09,2.09,0,0,1-2,2.67Z" transform="translate(-282.57 -64)"/><path d="M787.5,1021.57a2.14,2.14,0,0,1-2.09-2.32l3.94-37.7a2,2,0,0,1,2.31-1.87,2.1,2.1,0,0,1,1.88,2.31l-3.94,37.7A2.1,2.1,0,0,1,787.5,1021.57Z" transform="translate(-282.57 -64)"/><path d="M813.28,784.13a2.16,2.16,0,0,1-2.09-2.38L825,674.85a2.11,2.11,0,0,1,4.18.54l-13.8,106.9A2.12,2.12,0,0,1,813.28,784.13Z" transform="translate(-282.57 -64)"/><path d="M1129.14,1021.57a2.12,2.12,0,0,1-2.1-1.91c-14.36-152.22-25.24-242.83-31.83-292a2.11,2.11,0,0,1,4.18-.56c6.6,49.24,17.48,139.9,31.85,292.2a2.11,2.11,0,0,1-1.9,2.3Z" transform="translate(-282.57 -64)"/><path d="M922.28,416.43a2,2,0,0,1-.71-.13,2.09,2.09,0,0,1-1.26-2.7c3.77-10.39,18.19-13.4,26.75-11.48a2.12,2.12,0,0,1,1.6,2.52,2.06,2.06,0,0,1-2.52,1.59c-7-1.55-19.07,1.07-21.88,8.81A2.08,2.08,0,0,1,922.28,416.43Z" transform="translate(-282.57 -64)"/><path d="M1007,416.43a2.1,2.1,0,0,1-2-1.39c-2.81-7.74-14.85-10.37-21.87-8.81a2.09,2.09,0,0,1-2.52-1.59,2.11,2.11,0,0,1,1.59-2.52c8.57-1.92,23,1.09,26.76,11.48a2.11,2.11,0,0,1-1.26,2.7A2,2,0,0,1,1007,416.43Z" transform="translate(-282.57 -64)"/><path d="M921.26,359.88a2.1,2.1,0,0,1-1.72-.89l-6.79-9.58a2.11,2.11,0,1,1,3.44-2.43l6.79,9.58a2.12,2.12,0,0,1-.51,2.94A2.16,2.16,0,0,1,921.26,359.88Z" transform="translate(-282.57 -64)"/><path d="M1150.52,603.93a2.11,2.11,0,0,1-1.62-.75c-38.94-46.55-79.73-55.47-110.92-58.06a2.11,2.11,0,0,1-1.93-2.27,2.07,2.07,0,0,1,2.28-1.93c32,2.65,73.86,11.82,113.8,59.55a2.1,2.1,0,0,1-1.61,3.46Z" transform="translate(-282.57 -64)"/><path d="M441.9,661h-56c-4.28,0-7.52-1.56-9.14-4.38s-1.33-6.41.83-10.09l27.89-47.78c4.3-7.35,12.55-7.36,16.85,0l27.92,47.78c2.15,3.68,2.44,7.27.83,10.09S446.17,661,441.9,661Zm-28-63.74c-1.72,0-3.42,1.29-4.78,3.62l-27.89,47.77c-1.34,2.3-1.64,4.44-.82,5.87s2.83,2.27,5.49,2.27h56c2.65,0,4.66-.82,5.48-2.27s.53-3.57-.81-5.87l-27.92-47.77C417.28,598.51,415.58,597.22,413.86,597.22Z" transform="translate(-282.57 -64)"/><path d="M1087.4,706.6c-6.38,0-11.65-1.12-15.52-3.37a15,15,0,0,1-7.33-9.7c-3.45-14.11,14.1-23.8,14.85-24.21a2.11,2.11,0,0,1,2,3.71c-.16.08-15.45,8.55-12.77,19.5a10.83,10.83,0,0,0,5.36,7.06c7,4.06,19.74,3.77,36-.84,22.34-6.33,63-26.65,63.41-26.86a2.11,2.11,0,0,1,1.89,3.78c-1.68.84-41.43,20.69-64.15,27.14A88.75,88.75,0,0,1,1087.4,706.6Z" transform="translate(-282.57 -64)"/><path d="M1103.55,727.53c-7.24,0-13.06-1.31-16.56-4.26-12.19-10.25-5.85-20-5.79-20.15a2.11,2.11,0,0,1,3.51,2.34c-.23.36-4.15,6.9,5,14.59,9.67,8.14,47.51.55,79.41-15.9,17.23-8.88,31.43-19.78,42.21-32.39,10.39-12.15,14.44-29.07,11.4-47.64a93,93,0,0,0-21.08-45.27c-1-1.21-2.06-2.36-3.08-3.49-5.19-5.76-10.1-11.21-10.78-19.82-.3-3.68-.42-7.8-.53-12.06-.46-16.36-1-34.9-12.18-37.67-7.28-1.79-13.53-.34-18,4.26-8.17,8.32-9.6,25.34-3.9,46.67,2,7.35,4.12,14.64,6.28,21.93l2.4,8.13c.56,1.93,1.33,4.57.31,7.14a10.48,10.48,0,0,1-3.34,4,149.53,149.53,0,0,1-47.31,26.7c-23.57,8.18-37.48,17.11-41.32,26.53-1.67,4.07-1.42,8.17.74,12.53,1,2,3.14,3.53,6.39,4.54,14.22,4.48,49.93-2.15,88.1-23.16a2.11,2.11,0,0,1,2,3.7c-35,19.24-73.4,29.12-91.39,23.48-4.38-1.37-7.37-3.62-8.9-6.68a18.76,18.76,0,0,1-.88-16c4.39-10.75,18.74-20.2,43.85-28.92a145.31,145.31,0,0,0,46-26,7.08,7.08,0,0,0,2.12-2.38c.45-1.14.07-2.66-.44-4.4l-2.39-8.11c-2.17-7.33-4.34-14.66-6.31-22-6.09-22.81-4.28-41.3,5-50.72,5.52-5.63,13.35-7.52,22-5.39,14.32,3.54,14.88,23.78,15.38,41.65.12,4.18.22,8.22.52,11.83.57,7.19,4.81,11.89,9.7,17.34,1,1.16,2.12,2.34,3.17,3.57a97.1,97.1,0,0,1,22,47.33c3.25,19.81-1.14,37.95-12.35,51.06s-25.77,24.26-43.48,33.4C1149.1,719.21,1121.81,727.53,1103.55,727.53Z" transform="translate(-282.57 -64)"/><path d="M907.06,476.66h-68a2.11,2.11,0,0,1,0-4.21h68a2.11,2.11,0,0,1,0,4.21Z" transform="translate(-282.57 -64)"/><path d="M1023.2,323.13a2.1,2.1,0,0,1-2.1-2.11V124.49a56.34,56.34,0,0,0-56.28-56.28H493a56.35,56.35,0,0,0-56.28,56.28v91.58a2.11,2.11,0,1,1-4.21,0V124.49A60.56,60.56,0,0,1,493,64H964.82a60.56,60.56,0,0,1,60.49,60.49V321A2.1,2.1,0,0,1,1023.2,323.13Z" transform="translate(-282.57 -64)"/><path d="M597.14,476.66H493a60.56,60.56,0,0,1-60.49-60.49,2.11,2.11,0,0,1,4.21,0A56.35,56.35,0,0,0,493,472.45H597.14a2.11,2.11,0,0,1,0,4.21Z" transform="translate(-282.57 -64)"/><path d="M1507.16,868.59H1271.51a2.11,2.11,0,0,1,0-4.21h235.65a48.52,48.52,0,0,0,48.46-48.46V639.47a2.11,2.11,0,0,1,4.21,0V815.92A52.73,52.73,0,0,1,1507.16,868.59Z" transform="translate(-282.57 -64)"/><path d="M1557.72,554.29a2.1,2.1,0,0,1-2.1-2.11V533.54a48.51,48.51,0,0,0-48.46-48.45H1129.38a48.51,48.51,0,0,0-48.45,48.45v17.35a2.11,2.11,0,0,1-4.21,0V533.54a52.72,52.72,0,0,1,52.66-52.67h377.78a52.73,52.73,0,0,1,52.67,52.67v18.64A2.1,2.1,0,0,1,1557.72,554.29Z" transform="translate(-282.57 -64)"/><path d="M955.23,984.7H417.13A52.73,52.73,0,0,1,364.46,932V835.11a52.73,52.73,0,0,1,52.67-52.67H583.84a2.11,2.11,0,0,1,0,4.22H417.13a48.51,48.51,0,0,0-48.45,48.45V932a48.51,48.51,0,0,0,48.45,48.46h538.1A48.52,48.52,0,0,0,1003.69,932V835.11a48.51,48.51,0,0,0-48.46-48.45H739.1a2.11,2.11,0,0,1,0-4.22H955.23a52.73,52.73,0,0,1,52.67,52.67V932A52.73,52.73,0,0,1,955.23,984.7Z" transform="translate(-282.57 -64)"/><path d="M719.45,378.21a2.1,2.1,0,0,1-2-1.4c-.48-1.34-11.48-33,9.52-49.48,11.66-9.12,25.82-8.71,40.84-8.33,11.9.33,25.38.7,39.52-3.58,10.82-3.28,22.32-8.37,33.43-13.3,23-10.18,42.77-19,53.85-11.39,5.15,3.51,6.89,10.22,4.64,17.93-5.68,19.45-33.8,41.07-82.15,42.59a2.14,2.14,0,0,1-2.17-2,2.11,2.11,0,0,1,2-2.17c53.24-1.68,74.46-26.61,78.23-39.56,1.74-6,.66-10.8-3-13.28-9.13-6.22-28.87,2.5-49.77,11.77-11.23,5-22.84,10.13-33.92,13.48-14.78,4.48-28.64,4.1-40.85,3.76-14.84-.4-27.66-.76-38.14,7.44-18.58,14.56-8.25,44.45-8.14,44.75a2.11,2.11,0,0,1-1.28,2.69A2.21,2.21,0,0,1,719.45,378.21Z" transform="translate(-282.57 -64)"/><path d="M832.28,370.36q-6.84,0-13.94-.54a2.11,2.11,0,0,1-1.94-2.26,2,2,0,0,1,2.26-1.94c42.63,3.24,80-9.27,87-29.12,2-5.79,2-10.41-.22-13.7-3.49-5.24-11.26-5.75-11.33-5.75a2.13,2.13,0,0,1-2-2.23,2.18,2.18,0,0,1,2.23-2c.41,0,9.95.66,14.59,7.63,3,4.46,3.2,10.33.69,17.45C902.71,357.54,871.2,370.35,832.28,370.36Z" transform="translate(-282.57 -64)"/><path d="M767.64,398.47a2.11,2.11,0,0,1-.11-4.21c37.27-2,41.81-38.37,41.85-38.74a2.19,2.19,0,0,1,2.33-1.86,2.11,2.11,0,0,1,1.86,2.33c0,.41-5,40.31-45.82,42.48Z" transform="translate(-282.57 -64)"/><path d="M824.6,485.09a15.37,15.37,0,0,1-4.93-.83c-12.57-4.23-20.5-23.9-23.33-32.16-2.29-6.72-12-10.39-17.87-12.59a130.54,130.54,0,0,0-18.05-4.88c-3.66-.8-7.32-1.61-10.95-2.59a39.05,39.05,0,0,1-25.79-21.26c-4.88-9.94-7.07-22-6.33-34.8a2.18,2.18,0,0,1,2.22-2,2.12,2.12,0,0,1,2,2.22c-.7,12.11,1.34,23.42,5.9,32.7A34.52,34.52,0,0,0,750.58,428c3.56,1,7.15,1.76,10.74,2.54A133.76,133.76,0,0,1,780,435.57c6.52,2.45,17.44,6.57,20.38,15.16,2,6,9.59,25.81,20.68,29.54,3.71,1.24,7.45.56,11.42-2.11,6.5-4.37,8.19-11.11,8.46-16,.66-12-6.22-27-16.35-35.53A113.39,113.39,0,0,0,806.35,414c-1.15-.62-3.29-1.77-3.89-4.06a6.12,6.12,0,0,1,.4-3.84,13.54,13.54,0,0,1,8.9-8.11,34.91,34.91,0,0,1,8.64-1.19A257,257,0,0,0,863,391.24c10.57-2.37,22.74-5.68,32.95-12.22,3.46-2.22,8.23-5.72,9.62-10.36,3.46-11.58-7.76-16.39-8.24-16.59a2.11,2.11,0,1,1,1.62-3.89c5.27,2.18,14.29,9.54,10.65,21.69-1.79,6-7.35,10.11-11.38,12.7-10.76,6.9-23.37,10.33-34.3,12.78A259.72,259.72,0,0,1,821,401a33.2,33.2,0,0,0-8,1,9.35,9.35,0,0,0-6.21,5.62,2.31,2.31,0,0,0-.25,1.23c.14.53,1.32,1.16,1.82,1.43a117.28,117.28,0,0,1,18.91,13.09c11.06,9.36,18.56,25.75,17.83,39-.46,8.38-4,15-10.31,19.27A18.19,18.19,0,0,1,824.6,485.09Z" transform="translate(-282.57 -64)"/><path d="M444.34,690.35H383.41a38.82,38.82,0,0,1-38.78-38.78V606.41a38.83,38.83,0,0,1,38.78-38.78h60.93a38.83,38.83,0,0,1,38.78,38.78v45.16A38.82,38.82,0,0,1,444.34,690.35ZM383.41,571.84a34.61,34.61,0,0,0-34.57,34.57v45.16a34.61,34.61,0,0,0,34.57,34.57h60.93a34.61,34.61,0,0,0,34.57-34.57V606.41a34.61,34.61,0,0,0-34.57-34.57Z" transform="translate(-282.57 -64)"/><path d="M1359.64,292.85h-61.19A17.9,17.9,0,0,1,1280.57,275V213.77a17.91,17.91,0,0,1,17.88-17.89h61.19a17.91,17.91,0,0,1,17.89,17.89V275A17.9,17.9,0,0,1,1359.64,292.85Zm-61.19-92.75a13.68,13.68,0,0,0-13.67,13.67V275a13.68,13.68,0,0,0,13.67,13.67h61.19A13.68,13.68,0,0,0,1373.31,275V213.77a13.68,13.68,0,0,0-13.67-13.67Z" transform="translate(-282.57 -64)"/><path d="M1319.66,197.76a2.09,2.09,0,0,1-2-1.41c-11.33-32.54-30.59-55-57.24-66.87-37.25-16.54-88.07-11.39-151,15.28a2.11,2.11,0,1,1-1.64-3.88c64.06-27.15,116-32.28,154.37-15.25,27.37,12.15,47.95,36.12,59.51,69.33a2.12,2.12,0,0,1-2,2.8Z" transform="translate(-282.57 -64)"/><path d="M1087.19,175.05a23.51,23.51,0,1,1,23.5-23.51A23.54,23.54,0,0,1,1087.19,175.05Zm0-42.81a19.3,19.3,0,1,0,19.29,19.3A19.32,19.32,0,0,0,1087.19,132.24Z" transform="translate(-282.57 -64)"/><path d="M1329.05,267.8a23.51,23.51,0,1,1,23.5-23.51A23.54,23.54,0,0,1,1329.05,267.8Zm0-42.81a19.3,19.3,0,1,0,19.29,19.3A19.33,19.33,0,0,0,1329.05,225Z" transform="translate(-282.57 -64)"/><path d="M1446.17,372.92q-28.07,0-50.26-9.84c-27.39-12.17-48-36.19-59.52-69.45a2.11,2.11,0,1,1,4-1.39c11.31,32.6,30.57,55.14,57.25,67,37.26,16.55,88.08,11.43,151.06-15.25a2.09,2.09,0,0,1,2.76,1.12,2.12,2.12,0,0,1-1.12,2.76C1510.9,364.55,1476.07,372.92,1446.17,372.92Z" transform="translate(-282.57 -64)"/><path d="M1570.9,360.7a23.51,23.51,0,1,1,23.51-23.51A23.53,23.53,0,0,1,1570.9,360.7Zm0-42.8a19.3,19.3,0,1,0,19.3,19.29A19.32,19.32,0,0,0,1570.9,317.9Z" transform="translate(-282.57 -64)"/><path d="M874.59,859H565.19a2.11,2.11,0,1,1,0-4.21h309.4a2.11,2.11,0,1,1,0,4.21Z" transform="translate(-282.57 -64)"/><path d="M874.59,911.17H565.19a2.11,2.11,0,1,1,0-4.21h309.4a2.11,2.11,0,1,1,0,4.21Z" transform="translate(-282.57 -64)"/><path d="M457.58,919.63a36.06,36.06,0,1,1,36.06-36.06A36.09,36.09,0,0,1,457.58,919.63Zm0-67.9a31.85,31.85,0,1,0,31.85,31.84A31.88,31.88,0,0,0,457.58,851.73Z" transform="translate(-282.57 -64)"/><path d="M990.8,165.93H466.58a2.11,2.11,0,0,1,0-4.21H990.8a2.11,2.11,0,1,1,0,4.21Z" transform="translate(-282.57 -64)"/><path d="M957.47,138.74a22.85,22.85,0,1,1,22.85-22.85A22.88,22.88,0,0,1,957.47,138.74Zm0-41.49a18.64,18.64,0,1,0,18.64,18.64A18.66,18.66,0,0,0,957.47,97.25Z" transform="translate(-282.57 -64)"/><circle class="cls-2" cx="887.41" cy="115.89" r="20.74" transform="translate(-104.59 597.44) rotate(-45)"/><path d="M887.41,138.74a22.85,22.85,0,1,1,22.85-22.85A22.88,22.88,0,0,1,887.41,138.74Zm0-41.49a18.64,18.64,0,1,0,18.64,18.64A18.67,18.67,0,0,0,887.41,97.25Z" transform="translate(-282.57 -64)"/><path d="M817.35,138.74a22.85,22.85,0,1,1,22.85-22.85A22.88,22.88,0,0,1,817.35,138.74Zm0-41.49A18.64,18.64,0,1,0,836,115.89,18.66,18.66,0,0,0,817.35,97.25Z" transform="translate(-282.57 -64)"/><path d="M758.37,600.68a2.1,2.1,0,0,1-1.12-3.88c.62-.4,63.23-39.49,135.76-53.44a2.1,2.1,0,1,1,.79,4.13C822,561.3,760.11,600,759.49,600.36A2.1,2.1,0,0,1,758.37,600.68Z" transform="translate(-282.57 -64)"/><path d="M1061.94,659.35H1040a2.11,2.11,0,1,1,0-4.21h21.94a2.11,2.11,0,0,1,0,4.21Zm-43.88,0H996.12a2.11,2.11,0,0,1,0-4.21h21.94a2.11,2.11,0,1,1,0,4.21Zm-43.88,0H952.25a2.11,2.11,0,1,1,0-4.21h21.93a2.11,2.11,0,1,1,0,4.21Zm-43.87,0H908.37a2.11,2.11,0,0,1,0-4.21h21.94a2.11,2.11,0,1,1,0,4.21Zm-43.87,0H864.5a2.11,2.11,0,1,1,0-4.21h21.94a2.11,2.11,0,0,1,0,4.21Zm-43.88,0H820.62a2.11,2.11,0,0,1,0-4.21h21.94a2.11,2.11,0,0,1,0,4.21Zm-43.88,0H776.74a2.11,2.11,0,0,1,0-4.21h21.94a2.11,2.11,0,1,1,0,4.21Zm-36.92-7a2.1,2.1,0,0,1-2.11-2.1V628.36a2.11,2.11,0,1,1,4.21,0V650.3A2.1,2.1,0,0,1,761.76,652.4Zm0-43.88a2.1,2.1,0,0,1-2.11-2.1V584.48a2.11,2.11,0,0,1,4.21,0v21.94A2.1,2.1,0,0,1,761.76,608.52Zm0-43.87a2.1,2.1,0,0,1-2.11-2.11V540.6a2.11,2.11,0,0,1,4.21,0v21.94A2.1,2.1,0,0,1,761.76,564.65Zm0-43.88a2.1,2.1,0,0,1-2.11-2.11V496.73a2.11,2.11,0,1,1,4.21,0v21.93A2.1,2.1,0,0,1,761.76,520.77Zm404.76-36.07a2.1,2.1,0,0,1-2.1-2.11V460.65a2.11,2.11,0,0,1,4.21,0v21.94A2.1,2.1,0,0,1,1166.52,484.7Zm-404.76-7.8a2.11,2.11,0,0,1-2.11-2.11V452.85a2.11,2.11,0,1,1,4.21,0v21.94A2.11,2.11,0,0,1,761.76,476.9Zm404.76-36.08a2.1,2.1,0,0,1-2.1-2.11V416.78a2.11,2.11,0,1,1,4.21,0v21.93A2.1,2.1,0,0,1,1166.52,440.82ZM761.76,433a2.1,2.1,0,0,1-2.11-2.1V409a2.11,2.11,0,1,1,4.21,0v21.94A2.1,2.1,0,0,1,761.76,433Zm404.76-36.08a2.1,2.1,0,0,1-2.1-2.1V372.9a2.11,2.11,0,1,1,4.21,0v21.94A2.1,2.1,0,0,1,1166.52,396.94Zm-404.76-7.8a2.1,2.1,0,0,1-2.11-2.1V365.1a2.11,2.11,0,0,1,4.21,0V387A2.1,2.1,0,0,1,761.76,389.14Zm404.76-36.07a2.1,2.1,0,0,1-2.1-2.11v-7.82h-9.91a2.11,2.11,0,0,1,0-4.21h12a2.1,2.1,0,0,1,2.11,2.11V351A2.1,2.1,0,0,1,1166.52,353.07Zm-404.76-7.8a2.1,2.1,0,0,1-2.11-2.11V341a2.1,2.1,0,0,1,2.11-2.11h19.81a2.11,2.11,0,1,1,0,4.21l-17.71,0A2.1,2.1,0,0,1,761.76,345.27Zm370.81-2.13h-21.93a2.11,2.11,0,1,1,0-4.21h21.93a2.11,2.11,0,1,1,0,4.21Zm-43.87,0h-21.94a2.11,2.11,0,1,1,0-4.21h21.94a2.11,2.11,0,0,1,0,4.21Zm-43.88,0h-21.93a2.11,2.11,0,1,1,0-4.21h21.93a2.11,2.11,0,1,1,0,4.21Zm-43.87,0H979a2.11,2.11,0,0,1,0-4.21H1001a2.11,2.11,0,0,1,0,4.21Zm-43.88,0H935.13a2.11,2.11,0,0,1,0-4.21h21.94a2.11,2.11,0,1,1,0,4.21Zm-43.87,0H891.26a2.11,2.11,0,1,1,0-4.21H913.2a2.11,2.11,0,0,1,0,4.21Zm-43.88,0H847.38a2.11,2.11,0,0,1,0-4.21h21.94a2.11,2.11,0,0,1,0,4.21Zm-43.87,0h-22a2.11,2.11,0,0,1,0-4.21h22a2.11,2.11,0,0,1,0,4.21Z" transform="translate(-282.57 -64)"/><path d="M1027.36,419.5a2.1,2.1,0,0,1-1.44-.57c-40.54-37.91-87.71-46.87-97.08-48.32-2.23,6.31-10.66,28.54-22.1,39.18a2.11,2.11,0,0,1-2.87-3.09c12.35-11.47,21.46-38.8,21.55-39.08a2.12,2.12,0,0,1,2.23-1.43c.55.06,55.07,6.58,101.15,49.66a2.11,2.11,0,0,1-1.44,3.65Z" transform="translate(-282.57 -64)"/><path d="M964.73,468.25c-7.38,0-15-4.17-18.17-8.31-2.09-2.78-1.93-5-1.43-6.44a49.36,49.36,0,0,1,4.32-8.11c4.74-7.86,11.22-18.6,12.69-35.74a2,2,0,0,1,2.28-1.92,2.11,2.11,0,0,1,1.91,2.28c-1.54,18.11-8.6,29.81-13.28,37.55a48.17,48.17,0,0,0-3.95,7.36c-.29.82.4,1.9.83,2.48,2.59,3.44,9.62,6.93,15.76,6.61a2,2,0,0,1,2.24,2,2.1,2.1,0,0,1-2,2.24C965.55,468.24,965.15,468.25,964.73,468.25Z" transform="translate(-282.57 -64)"/><path d="M966.33,761.61a2.1,2.1,0,0,1-2.1-2.1V605.42a2.11,2.11,0,0,1,4.21,0V759.51A2.1,2.1,0,0,1,966.33,761.61Z" transform="translate(-282.57 -64)"/><path d="M729.86,420a2.12,2.12,0,0,1-1.26-.42c-24-18.09-35.26-38-28.6-50.69,3.11-5.95,8-9,16.15-10.31a2.1,2.1,0,0,1,2.41,1.76,2.12,2.12,0,0,1-1.76,2.41c-6.83,1.06-10.61,3.41-13.08,8.1-5.55,10.61,5.46,28.84,27.41,45.36a2.11,2.11,0,0,1-1.27,3.79Z" transform="translate(-282.57 -64)"/><path d="M795.39,449c-13.78-1.82-28.3-6.87-44.66-15.46-1-.52-2-1.06-3-1.61a2.11,2.11,0,1,1,2-3.69c1,.53,1.94,1.06,2.92,1.57,15.92,8.35,30,13.26,43,15a2.11,2.11,0,0,1-.28,4.2Z" transform="translate(-282.57 -64)"/><path d="M832.53,434.12a2.15,2.15,0,0,1-2.1-2.34c.94-8.43-5.18-19.36-17.23-30.77a2.11,2.11,0,0,1,2.91-3.06c13,12.34,19.59,24.52,18.51,34.3A2.11,2.11,0,0,1,832.53,434.12Z" transform="translate(-282.57 -64)"/><path d="M986.26,484.42a2.09,2.09,0,0,1-2-1.64c-.46-2-4.18-19.84,5.56-22.31,4.24-1.05,6.81.36,8.22,1.74,3.59,3.51,3.57,10.34,2.46,15.12a2.11,2.11,0,0,1-4.11-1c.93-4,.79-9.11-1.3-11.15-.34-.34-1.4-1.39-4.24-.66-4.55,1.15-3.64,12.15-2.48,17.29a2.11,2.11,0,0,1-1.6,2.52A2.4,2.4,0,0,1,986.26,484.42Z" transform="translate(-282.57 -64)"/><path d="M591,390a2.1,2.1,0,0,1-2.1-2.11v-198a2.11,2.11,0,1,1,4.21,0v198A2.1,2.1,0,0,1,591,390Z" transform="translate(-282.57 -64)"/><path d="M1003.18,439.43c-.51-.06-17.16-4.16-17.16-4.16a2.13,2.13,0,0,1-1.57-1.66,2.17,2.17,0,0,1,.87-2.12l14.88-10.35a2.14,2.14,0,0,1,2.94.53,2.12,2.12,0,0,1-.53,2.94l-11.05,7.69,12.12,3a2.11,2.11,0,0,1-.5,4.15Z" transform="translate(-282.57 -64)"/></svg>